# xmcd
# 
# Track frame offsets:
#     150
#     43557
#     71115
#     98602
#     138327
#     167415
# 
# Disc length: 2633
# 
# Revision: 2
# Processed by: cddbd v1.5.2PL0 Copyright (c) Steve Scherf et al.
# Submitted via: BonkEnc v1.0.15
# 
DISCID=470a4706
DTITLE=Art Blakey and The Jazz Messengers - The Big Beat
DYEAR=1960
DGENRE=Jazz
TTITLE0=The Chess Players
TTITLE1=Sakeena's Vision
TTITLE2=Politely
TTITLE3=Dat Dere
TTITLE4=Lester Left Town
TTITLE5=It's Only Paper Moon
EXTD=
EXTT0=
EXTT1=
EXTT2=
EXTT3=
EXTT4=
EXTT5=
PLAYORDER=
